<?xml version="1.0" standalone="no"?>
<!DOCTYPE svg PUBLIC "-//W3C//DTD SVG 20010904//EN"
 "http://www.w3.org/TR/2001/REC-SVG-20010904/DTD/svg10.dtd">
<svg version="1.0" xmlns="http://www.w3.org/2000/svg"
 width="539.000000pt" height="539.000000pt" viewBox="0 0 539.000000 539.000000"
 preserveAspectRatio="xMidYMid meet">
<metadata>
Created by potrace 1.16, written by Peter Selinger 2001-2019
</metadata>
<g transform="translate(0.000000,539.000000) scale(0.100000,-0.100000)"
fill="#000000" stroke="none">
<path d="M1710 4721 c-134 -44 -188 -89 -321 -267 -54 -74 -197 -265 -317
-426 -120 -161 -312 -417 -425 -569 -224 -301 -239 -328 -218 -406 35 -127
187 -184 286 -109 40 31 60 57 408 526 105 140 203 272 220 293 16 22 104 139
195 260 186 250 202 270 254 303 43 27 86 31 126 10 54 -29 51 -24 633 -806
250 -335 250 -335 332 -444 108 -142 184 -199 317 -237 220 -63 437 23 590
236 57 79 212 287 225 301 6 6 57 76 115 155 91 124 272 368 554 744 103 138
115 179 76 260 -38 79 -89 115 -165 115 -90 0 -115 -20 -245 -195 -44 -60
-260 -349 -478 -641 -425 -569 -456 -604 -532 -604 -64 0 -109 46 -322 330
-109 146 -248 330 -308 410 -60 80 -135 181 -167 224 -231 316 -301 403 -366
451 -96 73 -167 97 -302 101 -86 3 -122 -1 -165 -15z"/>
<path d="M1339 2163 c-16 -36 -45 -98 -64 -138 -19 -40 -35 -76 -35 -78 0 -3
-43 -101 -95 -216 -52 -116 -95 -215 -95 -219 0 -6 19 -7 63 -3 5 1 27 42 49
91 l41 90 202 0 203 0 16 -40 c29 -73 60 -135 70 -142 9 -6 54 -1 64 7 2 2
-69 169 -130 305 -11 25 -28 63 -38 85 -147 333 -138 319 -185 322 -35 2 -36
0 -66 -64z m150 -208 c45 -99 81 -183 81 -187 0 -5 -74 -8 -165 -8 -91 0 -165
4 -165 9 0 7 20 55 75 176 40 89 68 153 76 174 5 13 11 22 13 20 3 -2 41 -85
85 -184z"/>
<path d="M1913 2223 c-10 -4 -13 -84 -13 -359 l0 -354 195 0 195 0 0 30 0 30
-160 0 -160 0 -2 328 c-3 319 -3 327 -23 328 -11 0 -26 -1 -32 -3z"/>
<path d="M2453 2223 c-10 -7 -13 -94 -13 -357 -1 -192 3 -353 7 -357 4 -4 20
-5 35 -2 l27 5 3 112 3 111 150 5 c159 6 198 15 246 61 41 40 59 76 67 136 17
124 -23 207 -122 258 -57 29 -63 30 -225 33 -91 2 -172 -1 -178 -5z m365 -88
c131 -53 127 -253 -7 -312 -26 -11 -71 -16 -166 -17 l-130 -1 -3 165 c-1 90
-1 169 2 175 7 19 253 11 304 -10z"/>
<path d="M3135 2195 c-3 -16 -4 -178 -3 -360 3 -307 4 -330 21 -329 9 1 26 2
37 3 18 1 20 10 22 159 l3 157 214 3 c165 2 216 -1 223 -10 4 -7 8 -79 8 -160
0 -131 2 -147 18 -150 9 -2 25 -2 35 0 16 4 17 30 17 363 l0 359 -35 0 -35 0
-2 -167 -3 -168 -220 0 -220 0 -3 163 c-1 89 -6 162 -10 163 -58 6 -62 5 -67
-26z"/>
<path d="M4174 2205 c-8 -11 -14 -23 -14 -27 0 -3 -56 -131 -125 -282 -69
-152 -125 -278 -125 -280 0 -2 -9 -24 -20 -50 -12 -25 -22 -49 -23 -52 -1 -4
13 -8 31 -10 33 -4 34 -3 78 91 l44 95 201 0 200 0 44 -95 c37 -80 48 -95 67
-95 34 0 54 16 41 32 -5 7 -23 45 -38 83 -16 39 -32 75 -36 80 -3 6 -32 69
-64 140 -31 72 -63 144 -70 160 -8 17 -34 75 -58 130 l-45 100 -37 0 c-26 0
-41 -6 -51 -20z m66 -101 c6 -14 22 -51 36 -82 31 -67 114 -256 114 -259 0 -6
-327 -2 -333 4 -4 3 -3 11 1 17 5 6 25 50 46 99 20 48 49 115 65 150 16 34 31
70 34 80 9 25 26 21 37 -9z"/>
<path d="M470 1184 c0 -8 154 -394 212 -534 22 -52 45 -107 51 -122 6 -15 21
-29 32 -30 53 -8 57 -3 134 185 40 100 99 245 131 322 79 193 78 185 42 185
-20 0 -35 -8 -44 -22 -13 -21 -187 -449 -219 -540 -7 -21 -18 -38 -24 -38 -5
0 -39 75 -74 168 -36 92 -89 227 -119 300 l-54 132 -34 0 c-19 0 -34 -3 -34
-6z"/>
<path d="M1380 1158 c-8 -18 -33 -75 -57 -126 -24 -52 -43 -96 -43 -98 0 -5
-168 -374 -180 -396 -20 -36 -13 -50 23 -43 42 9 41 8 77 95 17 41 35 77 39
80 5 3 94 4 199 2 l189 -3 35 -81 c37 -89 52 -104 91 -95 l25 7 -62 137 c-35
76 -70 154 -79 173 -8 19 -49 112 -90 205 l-75 170 -40 3 c-36 3 -40 0 -52
-30z m69 -90 c41 -93 67 -151 102 -226 22 -46 39 -88 39 -93 0 -5 -72 -9 -160
-9 -88 0 -160 3 -160 7 0 14 153 353 159 353 4 0 13 -15 20 -32z"/>
<path d="M1907 1183 c-4 -3 -7 -159 -7 -345 0 -263 3 -338 13 -339 6 -1 22 -3
35 -4 l22 -2 0 279 c0 173 4 278 10 276 5 -1 102 -127 215 -278 195 -260 208
-275 240 -278 l34 -2 3 340 c2 187 2 345 0 350 -2 6 -17 10 -33 10 l-29 0 -1
-257 c-1 -142 -1 -265 0 -275 1 -9 -2 -19 -7 -22 -6 -3 -104 120 -218 274
-195 261 -211 280 -240 280 -17 0 -34 -3 -37 -7z"/>
<path d="M2607 1183 c-4 -3 -7 -19 -7 -35 l0 -28 115 0 115 0 0 -309 0 -309
23 -4 c48 -9 47 -14 47 313 l0 309 115 0 115 0 0 35 0 35 -258 0 c-142 0 -262
-3 -265 -7z"/>
<path d="M3390 1158 c-11 -18 -20 -36 -20 -39 0 -4 -20 -50 -45 -102 -25 -53
-45 -98 -45 -101 0 -5 -136 -308 -170 -378 -10 -20 -16 -39 -14 -41 2 -1 19
-1 38 1 32 4 36 9 71 88 l38 84 196 0 197 0 35 -82 c34 -79 38 -83 72 -89 22
-3 37 -2 37 4 0 5 -29 73 -64 151 -35 77 -103 230 -151 339 l-88 197 -34 0
c-27 0 -37 -6 -53 -32z m131 -233 c42 -96 74 -177 71 -180 -7 -7 -312 -6 -312
1 0 3 30 74 66 158 36 83 70 161 75 174 5 12 12 22 16 22 5 0 43 -79 84 -175z"/>
<path d="M4094 1176 c-109 -27 -205 -111 -245 -216 -28 -74 -24 -194 9 -262
54 -110 170 -193 285 -205 74 -8 167 12 240 50 l57 30 0 128 0 129 -30 0 -29
0 -3 -107 -3 -108 -50 -25 c-70 -35 -199 -36 -265 -1 -58 30 -106 76 -133 126
-31 58 -30 193 0 251 49 93 156 154 269 154 69 0 111 -12 168 -48 39 -24 39
-24 58 -4 24 24 19 35 -31 67 -82 51 -192 67 -297 41z"/>
<path d="M4648 849 c-2 -188 -1 -344 2 -349 6 -9 417 -14 454 -4 21 5 26 12
26 35 l0 29 -194 0 c-107 0 -200 2 -208 5 -10 4 -12 32 -10 125 l3 120 175 0
174 0 0 35 0 35 -175 0 -175 0 0 120 0 120 195 0 195 0 0 35 0 35 -230 0 -229
0 -3 -341z"/>
</g>
</svg>
