<svg xmlns="http://www.w3.org/2000/svg" width="900" height="332" viewBox="0 0 900 332" version="1.1"><path d="M 432 8.109 C 376.909 14.349, 329.067 48.377, 305.621 98.001 C 283.159 145.540, 285.405 201.251, 311.603 246.397 C 349.717 312.079, 428.205 341.626, 500 317.321 C 589.877 286.895, 633.121 184.229, 592.379 98.001 C 563.694 37.290, 498.245 0.606, 432 8.109 M 311 166.987 L 311 188.125 323.565 187.905 C 338.671 187.640, 343.168 186.050, 345.065 180.304 C 346.785 175.091, 345.660 168.938, 342.529 166.441 L 339.933 164.371 341.966 162.531 C 344.945 159.835, 344.749 152.984, 341.589 149.306 C 339.189 146.512, 339.115 146.499, 325.089 146.174 L 311 145.849 311 166.987 M 348 167 L 348 188 353.500 188 L 359 188 359 167 L 359 146 353.500 146 L 348 146 348 167 M 476.230 166.750 L 476.500 187.500 481.250 187.805 C 485.587 188.083, 486 187.916, 486 185.880 L 486 183.651 488.460 185.962 C 491.469 188.789, 497.713 189.073, 501.551 186.559 C 508.364 182.094, 509.099 166.253, 502.786 159.940 C 500.466 157.620, 498.960 157, 495.646 157 C 493.335 157, 490.445 157.701, 489.223 158.557 L 487 160.113 487 153.057 L 487 146 481.480 146 L 475.959 146 476.230 166.750 M 322.497 158.205 C 322.575 161.478, 322.609 161.500, 327.538 161.500 C 332.385 161.500, 332.500 161.430, 332.500 158.500 C 332.500 155.602, 332.328 155.490, 327.459 155.205 L 322.418 154.910 322.497 158.205 M 369.015 158.752 C 360.007 163.271, 358.401 177.649, 366.121 184.661 C 371.024 189.113, 380.408 189.584, 386.373 185.675 C 392.061 181.948, 393.885 170.117, 389.730 163.898 C 386.920 159.691, 381.762 157.003, 376.500 157.003 C 374.300 157.003, 370.932 157.790, 369.015 158.752 M 401.121 158.710 C 392.995 162.713, 390.661 176.254, 396.874 183.352 C 402.872 190.205, 416.859 189.724, 421.591 182.502 C 426.996 174.253, 424.243 162.798, 415.800 158.405 C 412.181 156.522, 405.271 156.666, 401.121 158.710 M 438.897 159.740 C 435.766 162.375, 435.664 162.394, 436.227 160.240 C 436.778 158.134, 436.504 158, 431.656 158 L 426.500 158 426.575 172.750 L 426.651 187.500 431.825 187.802 L 437 188.105 437 179.617 C 437 169.258, 438.045 166, 441.368 166 C 444.577 166, 445 167.466, 445 178.582 L 445 188 450 188 L 455 188 455 179.565 C 455 169.990, 456.110 166, 458.775 166 C 462.282 166, 463 168.075, 463 178.200 L 463 188 468.079 188 L 473.159 188 472.829 174.911 C 472.504 161.985, 472.465 161.792, 469.694 159.411 C 465.897 156.148, 459.805 156.104, 456.592 159.317 L 454.275 161.634 451.582 159.317 C 447.848 156.105, 443.026 156.265, 438.897 159.740 M 516.035 158.842 C 507.050 163.661, 506.106 180.092, 514.498 185.591 C 520.965 189.828, 530.720 189.116, 535.222 184.078 C 539.408 179.393, 538.924 178, 533.107 178 C 529.680 178, 528.042 178.449, 527.638 179.500 C 526.766 181.773, 522.338 181.321, 520.557 178.777 C 519.701 177.555, 518.999 176.318, 518.998 176.027 C 518.997 175.737, 523.497 175.642, 528.998 175.816 L 539 176.133 538.978 172.816 C 538.945 167.811, 535.569 161.317, 531.808 159.024 C 527.619 156.470, 520.608 156.389, 516.035 158.842 M 555.500 158.187 C 554.400 158.829, 552.952 160.062, 552.282 160.927 C 551.218 162.300, 551.060 162.214, 551.032 160.250 C 551.003 158.221, 550.509 158, 546 158 L 541 158 541 173.052 L 541 188.105 546.250 187.802 L 551.500 187.500 551.171 181.255 C 550.621 170.822, 552.745 167.060, 559.500 166.500 C 561.173 166.361, 561.500 165.612, 561.500 161.917 C 561.500 158.247, 561.162 157.459, 559.500 157.260 C 558.400 157.128, 556.600 157.545, 555.500 158.187 M 568.269 158.212 C 565.234 159.677, 562 166.714, 562 171.856 C 562 177.165, 565.034 183.239, 568.467 184.803 C 572.145 186.479, 577.563 186.294, 579.429 184.429 C 580.857 183, 581 183.135, 581 185.910 C 581 188.378, 580.493 189.089, 578.349 189.627 C 576.891 189.993, 574.933 189.815, 573.998 189.231 C 572.594 188.354, 565.730 187.548, 562.724 187.907 C 560.984 188.115, 565.262 194.084, 568.267 195.640 C 572.508 197.836, 582.151 197.786, 585.564 195.550 C 591.116 191.912, 591.992 188.821, 591.996 172.847 L 592 158.193 586.999 157.847 C 582.771 157.554, 581.999 157.770, 581.999 159.250 C 582 160.833, 581.809 160.809, 580 159 C 577.782 156.782, 572.033 156.396, 568.269 158.212 M 373.557 166.223 C 371.797 168.735, 371.518 174.602, 372.975 178.435 C 374.175 181.591, 378.409 181.973, 379.965 179.066 C 381.730 175.768, 381.242 167.529, 379.171 165.655 C 376.721 163.438, 375.415 163.570, 373.557 166.223 M 406 166 C 402.164 169.836, 404.052 181, 408.538 181 C 412.387 181, 413.628 177.842, 413.128 169.321 C 412.996 167.076, 410.569 164, 408.929 164 C 408.418 164, 407.100 164.900, 406 166 M 521.427 164.765 C 520.837 165.169, 520.080 166.245, 519.745 167.155 C 519.245 168.512, 519.948 168.874, 523.655 169.169 C 528.899 169.586, 529.475 169.123, 527.402 166.163 C 525.875 163.984, 523.410 163.407, 521.427 164.765 M 488.260 166.250 C 484.800 170.643, 486.887 180, 491.327 180 C 494.739 180, 496.333 177.611, 496.333 172.500 C 496.333 170.084, 495.753 167.408, 495.044 166.553 C 493.495 164.686, 489.628 164.513, 488.260 166.250 M 573.922 166.593 C 573.195 167.470, 572.600 169.678, 572.600 171.500 C 572.600 177.786, 578.489 180.611, 580.839 175.453 C 582.403 172.020, 582.300 169.874, 580.443 167.223 C 578.618 164.616, 575.790 164.344, 573.922 166.593 M 322.828 174.003 C 322.613 176.259, 322.541 178.208, 322.668 178.335 C 322.795 178.461, 325.237 178.325, 328.096 178.033 C 337.582 177.061, 337.712 170.762, 328.257 170.202 L 323.219 169.903 322.828 174.003" stroke="none" fill="#353ada" fill-rule="evenodd"/><path d="M 0 166.001 L 0 332.002 450.250 331.751 L 900.500 331.500 900.753 165.750 L 901.006 -0 450.503 -0 L 0 0 0 166.001 M 0.488 166.500 C 0.488 257.800, 0.606 295.298, 0.750 249.829 C 0.894 204.360, 0.894 129.660, 0.750 83.829 C 0.606 37.998, 0.488 75.200, 0.488 166.500 M 432 8.109 C 376.909 14.349, 329.067 48.377, 305.621 98.001 C 283.159 145.540, 285.405 201.251, 311.603 246.397 C 349.717 312.079, 428.205 341.626, 500 317.321 C 589.877 286.895, 633.121 184.229, 592.379 98.001 C 563.694 37.290, 498.245 0.606, 432 8.109 M 311 166.987 L 311 188.125 323.565 187.905 C 338.671 187.640, 343.168 186.050, 345.065 180.304 C 346.785 175.091, 345.660 168.938, 342.529 166.441 L 339.933 164.371 341.966 162.531 C 344.945 159.835, 344.749 152.984, 341.589 149.306 C 339.189 146.512, 339.115 146.499, 325.089 146.174 L 311 145.849 311 166.987 M 348 167 L 348 188 353.500 188 L 359 188 359 167 L 359 146 353.500 146 L 348 146 348 167 M 476.230 166.750 L 476.500 187.500 481.250 187.805 C 485.587 188.083, 486 187.916, 486 185.880 L 486 183.651 488.460 185.962 C 491.469 188.789, 497.713 189.073, 501.551 186.559 C 508.364 182.094, 509.099 166.253, 502.786 159.940 C 500.466 157.620, 498.960 157, 495.646 157 C 493.335 157, 490.445 157.701, 489.223 158.557 L 487 160.113 487 153.057 L 487 146 481.480 146 L 475.959 146 476.230 166.750 M 322.497 158.205 C 322.575 161.478, 322.609 161.500, 327.538 161.500 C 332.385 161.500, 332.500 161.430, 332.500 158.500 C 332.500 155.602, 332.328 155.490, 327.459 155.205 L 322.418 154.910 322.497 158.205 M 369.015 158.752 C 360.007 163.271, 358.401 177.649, 366.121 184.661 C 371.024 189.113, 380.408 189.584, 386.373 185.675 C 392.061 181.948, 393.885 170.117, 389.730 163.898 C 386.920 159.691, 381.762 157.003, 376.500 157.003 C 374.300 157.003, 370.932 157.790, 369.015 158.752 M 401.121 158.710 C 392.995 162.713, 390.661 176.254, 396.874 183.352 C 402.872 190.205, 416.859 189.724, 421.591 182.502 C 426.996 174.253, 424.243 162.798, 415.800 158.405 C 412.181 156.522, 405.271 156.666, 401.121 158.710 M 438.897 159.740 C 435.766 162.375, 435.664 162.394, 436.227 160.240 C 436.778 158.134, 436.504 158, 431.656 158 L 426.500 158 426.575 172.750 L 426.651 187.500 431.825 187.802 L 437 188.105 437 179.617 C 437 169.258, 438.045 166, 441.368 166 C 444.577 166, 445 167.466, 445 178.582 L 445 188 450 188 L 455 188 455 179.565 C 455 169.990, 456.110 166, 458.775 166 C 462.282 166, 463 168.075, 463 178.200 L 463 188 468.079 188 L 473.159 188 472.829 174.911 C 472.504 161.985, 472.465 161.792, 469.694 159.411 C 465.897 156.148, 459.805 156.104, 456.592 159.317 L 454.275 161.634 451.582 159.317 C 447.848 156.105, 443.026 156.265, 438.897 159.740 M 516.035 158.842 C 507.050 163.661, 506.106 180.092, 514.498 185.591 C 520.965 189.828, 530.720 189.116, 535.222 184.078 C 539.408 179.393, 538.924 178, 533.107 178 C 529.680 178, 528.042 178.449, 527.638 179.500 C 526.766 181.773, 522.338 181.321, 520.557 178.777 C 519.701 177.555, 518.999 176.318, 518.998 176.027 C 518.997 175.737, 523.497 175.642, 528.998 175.816 L 539 176.133 538.978 172.816 C 538.945 167.811, 535.569 161.317, 531.808 159.024 C 527.619 156.470, 520.608 156.389, 516.035 158.842 M 555.500 158.187 C 554.400 158.829, 552.952 160.062, 552.282 160.927 C 551.218 162.300, 551.060 162.214, 551.032 160.250 C 551.003 158.221, 550.509 158, 546 158 L 541 158 541 173.052 L 541 188.105 546.250 187.802 L 551.500 187.500 551.171 181.255 C 550.621 170.822, 552.745 167.060, 559.500 166.500 C 561.173 166.361, 561.500 165.612, 561.500 161.917 C 561.500 158.247, 561.162 157.459, 559.500 157.260 C 558.400 157.128, 556.600 157.545, 555.500 158.187 M 568.269 158.212 C 565.234 159.677, 562 166.714, 562 171.856 C 562 177.165, 565.034 183.239, 568.467 184.803 C 572.145 186.479, 577.563 186.294, 579.429 184.429 C 580.857 183, 581 183.135, 581 185.910 C 581 188.378, 580.493 189.089, 578.349 189.627 C 576.891 189.993, 574.933 189.815, 573.998 189.231 C 572.594 188.354, 565.730 187.548, 562.724 187.907 C 560.984 188.115, 565.262 194.084, 568.267 195.640 C 572.508 197.836, 582.151 197.786, 585.564 195.550 C 591.116 191.912, 591.992 188.821, 591.996 172.847 L 592 158.193 586.999 157.847 C 582.771 157.554, 581.999 157.770, 581.999 159.250 C 582 160.833, 581.809 160.809, 580 159 C 577.782 156.782, 572.033 156.396, 568.269 158.212 M 373.557 166.223 C 371.797 168.735, 371.518 174.602, 372.975 178.435 C 374.175 181.591, 378.409 181.973, 379.965 179.066 C 381.730 175.768, 381.242 167.529, 379.171 165.655 C 376.721 163.438, 375.415 163.570, 373.557 166.223 M 406 166 C 402.164 169.836, 404.052 181, 408.538 181 C 412.387 181, 413.628 177.842, 413.128 169.321 C 412.996 167.076, 410.569 164, 408.929 164 C 408.418 164, 407.100 164.900, 406 166 M 521.427 164.765 C 520.837 165.169, 520.080 166.245, 519.745 167.155 C 519.245 168.512, 519.948 168.874, 523.655 169.169 C 528.899 169.586, 529.475 169.123, 527.402 166.163 C 525.875 163.984, 523.410 163.407, 521.427 164.765 M 488.260 166.250 C 484.800 170.643, 486.887 180, 491.327 180 C 494.739 180, 496.333 177.611, 496.333 172.500 C 496.333 170.084, 495.753 167.408, 495.044 166.553 C 493.495 164.686, 489.628 164.513, 488.260 166.250 M 573.922 166.593 C 573.195 167.470, 572.600 169.678, 572.600 171.500 C 572.600 177.786, 578.489 180.611, 580.839 175.453 C 582.403 172.020, 582.300 169.874, 580.443 167.223 C 578.618 164.616, 575.790 164.344, 573.922 166.593 M 322.828 174.003 C 322.613 176.259, 322.541 178.208, 322.668 178.335 C 322.795 178.461, 325.237 178.325, 328.096 178.033 C 337.582 177.061, 337.712 170.762, 328.257 170.202 L 323.219 169.903 322.828 174.003" stroke="none" fill="#f0f0f0" fill-rule="evenodd"/></svg>