<svg xmlns="http://www.w3.org/2000/svg" width="348" height="332" viewBox="0 0 348 332" version="1.1"><path d="M 0 166.003 L 0 332.006 174.250 331.753 L 348.500 331.500 348.753 165.750 L 349.006 0 174.503 0 L 0 0 0 166.003 M 0.488 166.500 C 0.488 257.800, 0.606 295.298, 0.750 249.829 C 0.894 204.360, 0.894 129.660, 0.750 83.829 C 0.606 37.998, 0.488 75.200, 0.488 166.500 M 156 8.109 C 88.058 15.804, 32.315 65.806, 17.977 131.917 C 10.886 164.613, 14.101 199.326, 26.990 229.223 C 62.939 312.606, 159.818 349.140, 241.500 310.114 C 320.482 272.379, 353.961 177.541, 316.379 98.001 C 287.724 37.353, 222.176 0.614, 156 8.109 M 35 167.046 L 35 188.091 47.250 187.935 C 65.744 187.699, 70 185.080, 70 173.933 C 70 170.654, 69.395 169.238, 67.069 167.064 C 64.201 164.385, 64.179 164.291, 66.069 162.673 C 67.456 161.485, 68 159.727, 68 156.433 C 68 152.697, 67.458 151.304, 65.077 148.923 L 62.154 146 48.577 146 L 35 146 35 167.046 M 72 167 L 72 188 77.500 188 L 83 188 83 167 L 83 146 77.500 146 L 72 146 72 167 M 200.230 166.750 L 200.500 187.500 205.250 187.805 C 209.587 188.083, 210 187.916, 210 185.880 L 210 183.651 212.460 185.962 C 214.185 187.583, 216.116 188.273, 218.927 188.273 C 226.773 188.273, 231 182.785, 231 172.597 C 231 165.946, 229.853 162.695, 226.364 159.462 C 223.223 156.550, 216.726 156.103, 213.223 158.557 L 211 160.113 211 153.057 L 211 146 205.480 146 L 199.959 146 200.230 166.750 M 46.596 158.206 C 46.691 161.470, 46.736 161.500, 51.596 161.500 C 56.378 161.500, 56.500 161.426, 56.500 158.500 C 56.500 155.606, 56.324 155.490, 51.500 155.206 L 46.500 154.913 46.596 158.206 M 93.015 158.752 C 84.007 163.271, 82.401 177.649, 90.121 184.661 C 97.289 191.171, 111.098 188.796, 114.584 180.454 C 119.447 168.815, 112.353 157.003, 100.500 157.003 C 98.300 157.003, 94.932 157.790, 93.015 158.752 M 125.121 158.710 C 116.995 162.713, 114.661 176.254, 120.874 183.352 C 126.872 190.205, 140.859 189.724, 145.591 182.502 C 151.062 174.152, 148.346 162.851, 139.800 158.405 C 136.181 156.522, 129.271 156.666, 125.121 158.710 M 162.946 159.699 C 159.915 162.249, 159.777 162.277, 160.437 160.199 C 161.098 158.117, 160.844 158, 155.684 158 L 150.234 158 150.367 172.750 L 150.500 187.500 155.750 187.802 L 161 188.105 161 179.617 C 161 169.993, 162.107 166, 164.775 166 C 168.285 166, 169 168.073, 169 178.252 L 169 188.105 174.159 187.802 L 179.318 187.500 179.101 179.467 C 178.857 170.402, 180.058 166, 182.775 166 C 186.282 166, 187 168.075, 187 178.200 L 187 188 192 188 L 197 188 197 175.423 C 197 162.856, 196.998 162.844, 194.077 159.923 C 190.258 156.104, 184.083 155.826, 180.592 159.317 L 178.275 161.634 175.582 159.317 C 171.865 156.120, 167.025 156.266, 162.946 159.699 M 240.035 158.842 C 231.050 163.661, 230.106 180.092, 238.498 185.591 C 244.965 189.828, 254.720 189.116, 259.222 184.078 C 263.408 179.393, 262.924 178, 257.107 178 C 253.680 178, 252.042 178.449, 251.638 179.500 C 250.766 181.773, 246.338 181.321, 244.557 178.777 C 243.701 177.555, 242.999 176.318, 242.998 176.027 C 242.997 175.737, 247.497 175.642, 252.998 175.816 L 263 176.133 262.978 172.816 C 262.945 167.811, 259.569 161.317, 255.808 159.024 C 251.619 156.470, 244.608 156.389, 240.035 158.842 M 279.500 158.187 C 278.400 158.829, 276.952 160.062, 276.282 160.927 C 275.218 162.300, 275.060 162.214, 275.032 160.250 C 275.003 158.221, 274.509 158, 270 158 L 265 158 265 173.052 L 265 188.105 270.249 187.802 L 275.498 187.500 275.542 180 C 275.607 168.910, 276.695 167.064, 283.500 166.500 C 285.173 166.361, 285.500 165.612, 285.500 161.917 C 285.500 158.247, 285.162 157.459, 283.500 157.260 C 282.400 157.128, 280.600 157.545, 279.500 158.187 M 292.269 158.212 C 291.043 158.804, 289.130 161.166, 288.019 163.460 C 284.244 171.258, 286.222 181.512, 292.085 184.544 C 295.785 186.457, 301.458 186.399, 303.429 184.429 C 304.857 183, 305 183.073, 305 185.229 C 305 186.533, 304.460 188.140, 303.800 188.800 C 302.344 190.256, 298.770 190.370, 297.404 189.004 C 296.357 187.957, 287.398 186.936, 286.565 187.769 C 285.474 188.860, 289.253 194.080, 292.267 195.645 C 296.662 197.926, 305.734 197.861, 309.699 195.519 C 314.991 192.393, 316 188.715, 316 172.563 L 316 158.193 310.999 157.847 C 306.771 157.554, 305.999 157.770, 305.999 159.250 C 306 160.833, 305.809 160.809, 304 159 C 301.782 156.782, 296.033 156.396, 292.269 158.212 M 97.557 166.223 C 95.797 168.735, 95.518 174.602, 96.975 178.435 C 98.175 181.591, 102.409 181.973, 103.965 179.066 C 105.730 175.768, 105.242 167.529, 103.171 165.655 C 100.721 163.438, 99.415 163.570, 97.557 166.223 M 130 166 C 126.164 169.836, 128.052 181, 132.538 181 C 136.305 181, 137.360 178.652, 137.115 170.821 C 137.006 167.336, 134.958 164, 132.929 164 C 132.418 164, 131.100 164.900, 130 166 M 245.427 164.765 C 244.837 165.169, 244.080 166.245, 243.745 167.155 C 243.245 168.512, 243.948 168.874, 247.655 169.169 C 252.899 169.586, 253.475 169.123, 251.402 166.163 C 249.875 163.984, 247.410 163.407, 245.427 164.765 M 212.260 166.250 C 208.800 170.643, 210.887 180, 215.327 180 C 218.739 180, 220.333 177.611, 220.333 172.500 C 220.333 170.084, 219.753 167.408, 219.044 166.553 C 217.495 164.686, 213.628 164.513, 212.260 166.250 M 297.922 166.593 C 297.195 167.470, 296.600 169.678, 296.600 171.500 C 296.600 177.786, 302.489 180.611, 304.839 175.453 C 306.403 172.020, 306.300 169.874, 304.443 167.223 C 302.618 164.616, 299.790 164.344, 297.922 166.593 M 47 174 L 47 178.105 52.147 177.802 C 57.963 177.461, 60.337 175.350, 58.392 172.250 C 57.628 171.032, 55.728 170.408, 52.147 170.198 L 47 169.895 47 174" stroke="none" fill="#f4f4f5" fill-rule="evenodd"/><path d="M 156 8.109 C 88.058 15.804, 32.315 65.806, 17.977 131.917 C 10.886 164.613, 14.101 199.326, 26.990 229.223 C 62.939 312.606, 159.818 349.140, 241.500 310.114 C 320.482 272.379, 353.961 177.541, 316.379 98.001 C 287.724 37.353, 222.176 0.614, 156 8.109 M 35 167.046 L 35 188.091 47.250 187.935 C 65.744 187.699, 70 185.080, 70 173.933 C 70 170.654, 69.395 169.238, 67.069 167.064 C 64.201 164.385, 64.179 164.291, 66.069 162.673 C 67.456 161.485, 68 159.727, 68 156.433 C 68 152.697, 67.458 151.304, 65.077 148.923 L 62.154 146 48.577 146 L 35 146 35 167.046 M 72 167 L 72 188 77.500 188 L 83 188 83 167 L 83 146 77.500 146 L 72 146 72 167 M 200.230 166.750 L 200.500 187.500 205.250 187.805 C 209.587 188.083, 210 187.916, 210 185.880 L 210 183.651 212.460 185.962 C 214.185 187.583, 216.116 188.273, 218.927 188.273 C 226.773 188.273, 231 182.785, 231 172.597 C 231 165.946, 229.853 162.695, 226.364 159.462 C 223.223 156.550, 216.726 156.103, 213.223 158.557 L 211 160.113 211 153.057 L 211 146 205.480 146 L 199.959 146 200.230 166.750 M 46.596 158.206 C 46.691 161.470, 46.736 161.500, 51.596 161.500 C 56.378 161.500, 56.500 161.426, 56.500 158.500 C 56.500 155.606, 56.324 155.490, 51.500 155.206 L 46.500 154.913 46.596 158.206 M 93.015 158.752 C 84.007 163.271, 82.401 177.649, 90.121 184.661 C 97.289 191.171, 111.098 188.796, 114.584 180.454 C 119.447 168.815, 112.353 157.003, 100.500 157.003 C 98.300 157.003, 94.932 157.790, 93.015 158.752 M 125.121 158.710 C 116.995 162.713, 114.661 176.254, 120.874 183.352 C 126.872 190.205, 140.859 189.724, 145.591 182.502 C 151.062 174.152, 148.346 162.851, 139.800 158.405 C 136.181 156.522, 129.271 156.666, 125.121 158.710 M 162.946 159.699 C 159.915 162.249, 159.777 162.277, 160.437 160.199 C 161.098 158.117, 160.844 158, 155.684 158 L 150.234 158 150.367 172.750 L 150.500 187.500 155.750 187.802 L 161 188.105 161 179.617 C 161 169.993, 162.107 166, 164.775 166 C 168.285 166, 169 168.073, 169 178.252 L 169 188.105 174.159 187.802 L 179.318 187.500 179.101 179.467 C 178.857 170.402, 180.058 166, 182.775 166 C 186.282 166, 187 168.075, 187 178.200 L 187 188 192 188 L 197 188 197 175.423 C 197 162.856, 196.998 162.844, 194.077 159.923 C 190.258 156.104, 184.083 155.826, 180.592 159.317 L 178.275 161.634 175.582 159.317 C 171.865 156.120, 167.025 156.266, 162.946 159.699 M 240.035 158.842 C 231.050 163.661, 230.106 180.092, 238.498 185.591 C 244.965 189.828, 254.720 189.116, 259.222 184.078 C 263.408 179.393, 262.924 178, 257.107 178 C 253.680 178, 252.042 178.449, 251.638 179.500 C 250.766 181.773, 246.338 181.321, 244.557 178.777 C 243.701 177.555, 242.999 176.318, 242.998 176.027 C 242.997 175.737, 247.497 175.642, 252.998 175.816 L 263 176.133 262.978 172.816 C 262.945 167.811, 259.569 161.317, 255.808 159.024 C 251.619 156.470, 244.608 156.389, 240.035 158.842 M 279.500 158.187 C 278.400 158.829, 276.952 160.062, 276.282 160.927 C 275.218 162.300, 275.060 162.214, 275.032 160.250 C 275.003 158.221, 274.509 158, 270 158 L 265 158 265 173.052 L 265 188.105 270.249 187.802 L 275.498 187.500 275.542 180 C 275.607 168.910, 276.695 167.064, 283.500 166.500 C 285.173 166.361, 285.500 165.612, 285.500 161.917 C 285.500 158.247, 285.162 157.459, 283.500 157.260 C 282.400 157.128, 280.600 157.545, 279.500 158.187 M 292.269 158.212 C 291.043 158.804, 289.130 161.166, 288.019 163.460 C 284.244 171.258, 286.222 181.512, 292.085 184.544 C 295.785 186.457, 301.458 186.399, 303.429 184.429 C 304.857 183, 305 183.073, 305 185.229 C 305 186.533, 304.460 188.140, 303.800 188.800 C 302.344 190.256, 298.770 190.370, 297.404 189.004 C 296.357 187.957, 287.398 186.936, 286.565 187.769 C 285.474 188.860, 289.253 194.080, 292.267 195.645 C 296.662 197.926, 305.734 197.861, 309.699 195.519 C 314.991 192.393, 316 188.715, 316 172.563 L 316 158.193 310.999 157.847 C 306.771 157.554, 305.999 157.770, 305.999 159.250 C 306 160.833, 305.809 160.809, 304 159 C 301.782 156.782, 296.033 156.396, 292.269 158.212 M 97.557 166.223 C 95.797 168.735, 95.518 174.602, 96.975 178.435 C 98.175 181.591, 102.409 181.973, 103.965 179.066 C 105.730 175.768, 105.242 167.529, 103.171 165.655 C 100.721 163.438, 99.415 163.570, 97.557 166.223 M 130 166 C 126.164 169.836, 128.052 181, 132.538 181 C 136.305 181, 137.360 178.652, 137.115 170.821 C 137.006 167.336, 134.958 164, 132.929 164 C 132.418 164, 131.100 164.900, 130 166 M 245.427 164.765 C 244.837 165.169, 244.080 166.245, 243.745 167.155 C 243.245 168.512, 243.948 168.874, 247.655 169.169 C 252.899 169.586, 253.475 169.123, 251.402 166.163 C 249.875 163.984, 247.410 163.407, 245.427 164.765 M 212.260 166.250 C 208.800 170.643, 210.887 180, 215.327 180 C 218.739 180, 220.333 177.611, 220.333 172.500 C 220.333 170.084, 219.753 167.408, 219.044 166.553 C 217.495 164.686, 213.628 164.513, 212.260 166.250 M 297.922 166.593 C 297.195 167.470, 296.600 169.678, 296.600 171.500 C 296.600 177.786, 302.489 180.611, 304.839 175.453 C 306.403 172.020, 306.300 169.874, 304.443 167.223 C 302.618 164.616, 299.790 164.344, 297.922 166.593 M 47 174 L 47 178.105 52.147 177.802 C 57.963 177.461, 60.337 175.350, 58.392 172.250 C 57.628 171.032, 55.728 170.408, 52.147 170.198 L 47 169.895 47 174" stroke="none" fill="#353adb" fill-rule="evenodd"/></svg>