<svg xmlns="http://www.w3.org/2000/svg" width="225" height="225" viewBox="0 0 225 225" version="1.1"><path d="M 0.122 51.250 C 0.201 84.512, 0.547 100.394, 1.109 96.500 C 6.292 60.528, 30.129 28.168, 63.358 11.993 C 74.875 6.387, 89.331 2.226, 101.324 1.064 C 106.402 0.573, 88.756 0.221, 54.750 0.136 L 0 0 0.122 51.250 M 124 1.008 C 144.580 3.008, 165.050 10.872, 181.051 22.926 C 189.315 29.151, 201.402 41.756, 206.969 49.955 C 213.192 59.118, 219.763 73.614, 222.507 84.235 L 224.902 93.500 224.951 46.750 L 225 0 170.750 0.140 C 140.853 0.217, 119.867 0.607, 124 1.008 M 110 53.500 L 110 88 106 88 L 102 88 102 138.500 L 102 189 106 189 L 110 189 110 198 L 110 207 113.500 207 L 117 207 117 198 L 117 189 120.750 189 L 124.500 189 124.500 138.500 L 124.500 88 120.750 88 L 117 88 117 53.500 L 117 19 113.500 19 L 110 19 110 53.500 M 151 39.500 L 151 46 147.500 46 L 144 46 144 79.500 L 144 113 147.500 113 L 151 113 151 125.500 L 151 138 154.500 138 L 158 138 158 125.500 L 158 113 161.500 113 L 165 113 165 79.500 L 165 46 161.500 46 L 158 46 158 39.500 L 158 33 154.500 33 L 151 33 151 39.500 M 68.798 52.250 C 68.500 58.500, 68.500 58.500, 65.250 58.813 L 62 59.127 62 77.063 L 62 95 65.500 95 L 69 95 69 148 L 69 201 72.500 201 L 76 201 76 148 L 76 95 79.500 95 L 83 95 83 77 L 83 59 79.500 59 L 76 59 76 52.500 L 76 46 72.548 46 L 69.095 46 68.798 52.250 M 0.116 173.750 L 0 225 51.250 224.878 C 84.512 224.799, 100.394 224.453, 96.500 223.891 C 79.814 221.487, 58.880 212.814, 45.500 202.762 C 22.528 185.505, 6.354 159.542, 2.039 133 C 1.368 128.875, 0.688 124.825, 0.526 124 C 0.364 123.175, 0.180 145.563, 0.116 173.750 M 223.994 135.250 C 223.983 139.071, 216.658 159.134, 212.670 166.263 C 194.436 198.863, 165.186 218.467, 126 224.352 C 124.625 224.559, 146.337 224.789, 174.250 224.864 L 225 225 225 179 C 225 153.700, 224.775 133, 224.500 133 C 224.225 133, 223.997 134.012, 223.994 135.250" stroke="none" fill="#fbf9f8" fill-rule="evenodd"/><path d="M 101.324 1.030 C 82.151 2.967, 60.562 11.394, 45.284 22.907 C 24.364 38.671, 10.147 59.985, 3.250 85.926 C 1.057 94.172, 0.691 97.720, 0.612 111.500 C 0.514 128.395, 1.276 133.814, 5.674 147.500 C 24.803 207.026, 90.537 239.263, 150.700 218.623 C 190.991 204.801, 220.887 167.724, 225.130 126.315 C 228.747 91.011, 218.571 60.276, 195.147 35.758 C 182.324 22.337, 167.771 12.890, 150.312 6.655 C 136.551 1.740, 116.775 -0.530, 101.324 1.030 M 110 53.500 L 110 88 106 88 L 102 88 102 138.500 L 102 189 106 189 L 110 189 110 198 L 110 207 113.500 207 L 117 207 117 198 L 117 189 120.750 189 L 124.500 189 124.500 138.500 L 124.500 88 120.750 88 L 117 88 117 53.500 L 117 19 113.500 19 L 110 19 110 53.500 M 151 39.500 L 151 46 147.500 46 L 144 46 144 79.500 L 144 113 147.500 113 L 151 113 151 125.500 L 151 138 154.500 138 L 158 138 158 125.500 L 158 113 161.500 113 L 165 113 165 79.500 L 165 46 161.500 46 L 158 46 158 39.500 L 158 33 154.500 33 L 151 33 151 39.500 M 68.798 52.250 C 68.500 58.500, 68.500 58.500, 65.250 58.813 L 62 59.127 62 77.063 L 62 95 65.500 95 L 69 95 69 148 L 69 201 72.500 201 L 76 201 76 148 L 76 95 79.500 95 L 83 95 83 77 L 83 59 79.500 59 L 76 59 76 52.500 L 76 46 72.548 46 L 69.095 46 68.798 52.250 M 0.374 112.500 C 0.376 118.550, 0.541 120.896, 0.740 117.713 C 0.939 114.531, 0.937 109.581, 0.736 106.713 C 0.535 103.846, 0.372 106.450, 0.374 112.500" stroke="none" fill="#ec5c43" fill-rule="evenodd"/></svg>