<svg id="svg" version="1.1" xmlns="http://www.w3.org/2000/svg" viewBox="0 0 736 608" style="display: block;"><path d="M0 0 C242.88 0 485.76 0 736 0 C736 200.64 736 401.28 736 608 C493.12 608 250.24 608 0 608 C0 407.36 0 206.72 0 0 Z " transform="translate(0,0)" style="fill: #000000;"/><path d="M0 0 C22.17744049 19.82072721 39.31335322 45.14827332 47.4609375 73.95703125 C47.4609375 74.94703125 47.4609375 75.93703125 47.4609375 76.95703125 C49.40190308 76.93346558 49.40190308 76.93346558 51.38208008 76.90942383 C56.27817316 76.85427298 61.17424014 76.82037823 66.07055664 76.79223633 C68.1718409 76.77734042 70.27309516 76.75701684 72.37426758 76.73071289 C89.4432884 76.52270332 106.06477929 77.42879588 122.4609375 82.58203125 C123.27651123 82.83436523 124.09208496 83.08669922 124.93237305 83.34667969 C161.00944624 95.01061762 190.18659004 120.81204069 207.74560547 154.24560547 C224.19306071 187.06345864 226.58663327 227.82903398 215.44018555 262.62817383 C209.32129008 280.59564359 199.77308535 296.56787759 187.4609375 310.95703125 C186.81253906 311.74078125 186.16414062 312.52453125 185.49609375 313.33203125 C180.40797747 319.32539521 174.67977723 324.16869598 168.4609375 328.95703125 C167.18089844 329.96056641 167.18089844 329.96056641 165.875 330.984375 C139.65731594 350.86415045 109.35685918 359.14379272 76.80052185 359.07728577 C75.20883084 359.07772227 73.6171399 359.07859863 72.02544934 359.07987493 C67.66756989 359.08210438 63.30971515 359.07811987 58.95183885 359.07309687 C54.24643162 359.06877026 49.54102573 359.07024036 44.83561707 359.07099915 C36.68845224 359.07152298 28.54129543 359.06839085 20.39413261 359.06276131 C8.61476563 359.05462728 -3.16459749 359.05202913 -14.94396698 359.05077332 C-34.05615271 359.04858579 -53.16833417 359.04193381 -72.28051758 359.0324707 C-90.84399392 359.02328885 -109.40746911 359.01621179 -127.97094727 359.01196289 C-129.68790995 359.01156881 -129.68790995 359.01156881 -131.43955875 359.01116676 C-137.1820064 359.0098617 -142.92445405 359.008598 -148.66690171 359.00735486 C-196.29095842 358.99699156 -243.9150099 358.97910577 -291.5390625 358.95703125 C-291.5390625 342.12703125 -291.5390625 325.29703125 -291.5390625 307.95703125 C-273.2890625 307.20703125 -273.2890625 307.20703125 -267.60839844 307.00097656 C-252.72498978 306.36043513 -239.26986096 303.55373895 -228.25 292.703125 C-219.69901397 282.72697463 -216.11900237 271.47610251 -216.265625 258.5 C-217.21632149 246.18168972 -222.828696 237.42730859 -230.66259766 228.30615234 C-231.20163727 227.67824799 -231.74067688 227.05034363 -232.29605103 226.40341187 C-232.70624481 225.92610626 -233.1164386 225.44880066 -233.5390625 224.95703125 C-232.46545975 224.94085754 -231.39185699 224.92468384 -230.28572083 224.90802002 C-220.12051704 224.75240375 -209.95582592 224.57675763 -199.79129505 224.38197708 C-194.56677992 224.28249189 -189.34233712 224.18983288 -184.11743164 224.11328125 C-179.06605088 224.03901227 -174.01531017 223.94615009 -168.96448326 223.84090424 C-167.04670232 223.8041126 -165.12878497 223.7737898 -163.21079445 223.75034332 C-145.47904475 223.52601406 -129.81852635 220.9413959 -116.5390625 207.95703125 C-105.48777815 194.59833588 -103.23070122 179.77782492 -104.5390625 162.95703125 C-106.88871443 150.46812043 -112.90049757 138.95526333 -122.9765625 131.04296875 C-138.36860333 120.52805713 -153.78237154 121.43199525 -171.7265625 121.64453125 C-173.74874475 121.65895148 -175.77092511 121.67004206 -177.79313087 121.68060875 C-199.99826665 121.79670023 -222.20254788 122.17700867 -244.4043932 122.56285095 C-265.65854137 122.93000326 -286.90686584 123.04464696 -308.1640625 123.01953125 C-309.25130867 123.01824722 -309.25130867 123.01824722 -310.36051941 123.01693726 C-319.0867252 123.00580541 -327.81289663 122.9860496 -336.5390625 122.95703125 C-333.5194563 100.06226097 -333.5194563 100.06226097 -330.7890625 91.20703125 C-330.53229736 90.3469043 -330.27553223 89.48677734 -330.01098633 88.60058594 C-321.21892422 59.96887209 -305.65566512 34.90502685 -285.3515625 13.01953125 C-284.79388184 12.41713623 -284.23620117 11.81474121 -283.66162109 11.1940918 C-221.81651632 -54.32255614 -117.69019326 -64.63624602 0 0 Z " transform="translate(471.5390625,145.04296875)" style="fill: #55B143;"/><path d="M0 0 C4.74919573 -0.07492807 9.4982335 -0.12981124 14.24784207 -0.17047298 C16.00439389 -0.18885952 17.76088999 -0.21417363 19.51722789 -0.24718201 C31.01982343 -0.45783447 41.18887117 -0.15499999 50.51232147 7.40278244 C51.7499502 8.60244709 52.96077599 9.83065516 54.13732147 11.09028244 C54.87788788 11.8753215 54.87788788 11.8753215 55.63341522 12.67621994 C61.38678869 19.67587312 62.72395138 29.47946891 62.41857147 38.29731369 C61.5114992 47.30504527 59.41168714 54.44332974 53.13732147 61.09028244 C52.64618866 61.64457932 52.15505585 62.19887619 51.64904022 62.76996994 C42.20724651 72.18833488 27.76611881 71.71752093 15.3592453 71.81977463 C13.60234175 71.84830862 11.84546452 71.87850376 10.08861542 71.91021347 C5.33524006 71.9912025 0.58184477 72.04870185 -4.17191482 72.10164547 C-9.22742555 72.16181546 -14.28260149 72.24314858 -19.33785248 72.32178879 C-27.88089935 72.45173232 -36.42404057 72.56763263 -44.96741486 72.67377853 C-53.59455021 72.78099806 -62.22145215 72.89821615 -70.84827423 73.02827072 C-71.89655266 73.04407228 -72.94483108 73.05987384 -74.02487552 73.07615423 C-76.13548536 73.10801027 -78.24609501 73.1398787 -80.35670447 73.17175961 C-103.68007933 73.52222808 -127.00382373 73.80347659 -150.32867432 74.03452682 C-153.95805806 74.07063351 -157.58741073 74.10873869 -161.2167511 74.14896774 C-170.83682022 74.25540403 -180.45658017 74.34291257 -190.07711983 74.39247513 C-192.88652774 74.40754023 -195.6956207 74.43152567 -198.50488091 74.46393204 C-202.29922934 74.50368685 -206.09280645 74.51791112 -209.88733673 74.52485275 C-211.50905635 74.54984974 -211.50905635 74.54984974 -213.16353798 74.57535172 C-223.01926152 74.5394704 -230.90244922 71.81475635 -238.10877228 65.01606369 C-247.1897539 55.04518632 -247.64330615 44.27559901 -247.0535965 31.39496994 C-246.28622483 22.13155754 -240.9354709 15.42421158 -234.06580353 9.55512619 C-228.55764745 5.37526439 -223.11774067 3.88796607 -216.21237946 3.48958969 C-215.56756666 3.45238093 -214.92275386 3.41517218 -214.25840127 3.37683588 C-205.60193491 2.91578658 -196.93385037 2.8207177 -188.26746368 2.70136642 C-186.34164696 2.67198558 -184.41583529 2.64227206 -182.49002838 2.6122551 C-177.29416349 2.5322831 -172.09823922 2.45715375 -166.90228701 2.38310122 C-161.40950464 2.30414512 -155.91678205 2.2212095 -150.42404938 2.13888168 C-141.17592918 2.00089054 -131.92776714 1.86604641 -122.67957306 1.73310471 C-112.10145441 1.58100913 -101.52341637 1.42407366 -90.94540942 1.26441139 C-80.66675862 1.10938166 -70.38805845 0.95788445 -60.10933304 0.80788994 C-55.78910767 0.74479232 -51.46890166 0.68055917 -47.14870834 0.61530495 C-36.22649679 0.45115967 -25.3043551 0.30037993 -14.38150108 0.18565208 C-9.58743577 0.13490135 -4.7937381 0.0759406 0 0 Z " transform="translate(289.86267852783203,281.90971755981445)" style="fill: #56B142;"/><path d="M0 0 C5.81811195 6.81674311 8.14941772 15.00848921 7.5703125 23.83984375 C5.46491845 33.59277209 1.08247135 41.32097153 -7.4296875 46.83984375 C-15.0986914 50.58889569 -23.2777322 50.36106516 -31.6171875 50.46484375 C-33.22755849 50.49499185 -34.83790976 50.52620736 -36.44824219 50.55834961 C-41.28015437 50.64983933 -46.11223215 50.72000151 -50.94451904 50.78839111 C-54.7575346 50.84468386 -58.57041842 50.90761583 -62.38330078 50.97216797 C-81.03899715 51.28667158 -99.69483937 51.54703146 -118.35190487 51.76507282 C-122.74777686 51.81727812 -127.14341302 51.8789734 -131.5390625 51.94726562 C-136.54114598 52.02490571 -141.54301877 52.08460526 -146.54553223 52.12594604 C-148.27340029 52.14326156 -150.00121642 52.16738131 -151.72888184 52.19900513 C-162.87192519 52.396846 -173.28233249 51.89315017 -181.82421875 43.77734375 C-188.06545866 36.24533647 -190.31556804 28.73407401 -189.8046875 19.02734375 C-188.71732599 9.78477088 -184.3556932 4.06113663 -177.4296875 -2.16015625 C-168.09149811 -8.36931883 -156.01634452 -7.32245238 -145.26000977 -7.47314453 C-143.97899384 -7.49440399 -142.69797791 -7.51566345 -141.37814331 -7.53756714 C-137.89262534 -7.59516383 -134.40704726 -7.64742213 -130.92142606 -7.69833994 C-127.99918776 -7.74150026 -125.07699236 -7.78725897 -122.1547932 -7.83298099 C-115.25518738 -7.9408691 -108.35552515 -8.04434739 -101.45581055 -8.14501953 C-94.36433983 -8.24856502 -87.27301141 -8.35947532 -80.18171078 -8.47403538 C-74.06764903 -8.57255071 -67.9535285 -8.66650033 -61.83934063 -8.75684917 C-58.19888828 -8.81068537 -54.55848157 -8.86617521 -50.91812325 -8.92605972 C-46.85508168 -8.9926575 -42.79195793 -9.04971822 -38.72875977 -9.10595703 C-37.54037003 -9.12668274 -36.35198029 -9.14740845 -35.12757874 -9.16876221 C-22.06738759 -9.33214968 -10.13190598 -9.26009081 0 0 Z " transform="translate(232.4296875,386.16015625)" style="fill: #56B142;"/><path d="M0 0 C3.94206585 -0.0834752 7.88383452 -0.14156157 11.8265686 -0.18206787 C13.3341305 -0.20014662 14.84162992 -0.22478433 16.34896851 -0.25640869 C26.89117997 -0.46574254 35.97246696 -0.00091684 44.11181641 7.35302734 C50.57305856 14.62383412 51.97505635 20.59073914 51.68212891 30.40380859 C50.83148936 37.47008621 48.07264238 42.71786673 42.86181641 47.54052734 C36.20502346 52.66336365 29.14962722 54.20016553 20.86108398 54.29589844 C19.59238968 54.31196136 18.32369537 54.32802429 17.01655579 54.34457397 C15.63815998 54.35606453 14.25975657 54.36667254 12.88134766 54.37646484 C12.18129797 54.38178852 11.48124828 54.3871122 10.75998497 54.3925972 C7.05264765 54.41925905 3.34534314 54.43865383 -0.36206055 54.453125 C-3.41249736 54.46644072 -6.46226151 54.49425802 -9.51245117 54.53515625 C-13.21415503 54.58477129 -16.91525126 54.60928047 -20.61727333 54.61635208 C-22.01857465 54.62301648 -23.41986498 54.63811136 -24.82097435 54.66224289 C-34.6382469 54.82165135 -42.34117182 53.8825707 -49.89787292 47.22128296 C-55.33577149 41.77450142 -57.51088818 35.75510855 -57.92333984 28.14990234 C-57.65216234 19.68916409 -54.94929498 13.11437066 -48.79833984 7.22021484 C-43.12014441 2.70817471 -37.68362605 0.89939164 -30.40771484 0.68896484 C-29.16199707 0.64989014 -27.9162793 0.61081543 -26.6328125 0.57055664 C-25.28045809 0.53876833 -23.92808056 0.50795083 -22.57568359 0.47802734 C-21.88609558 0.46067535 -21.19650757 0.44332336 -20.48602295 0.42544556 C-16.02625813 0.31325865 -11.56637619 0.22413958 -7.105896 0.14593506 C-4.73712703 0.10255011 -2.36859743 0.05185561 0 0 Z " transform="translate(103.76318359375,456.89697265625)" style="fill: #56B142;"/></svg>