<svg xmlns="http://www.w3.org/2000/svg" width="225" height="225" viewBox="0 0 225 225" version="1.1"><path d="M -0 112.504 L -0 225.009 112.750 224.754 L 225.500 224.500 225.754 112.250 L 226.009 0 113.004 0 L 0 0 -0 112.504 M 0.483 113 C 0.483 174.875, 0.603 200.188, 0.750 169.250 C 0.897 138.313, 0.897 87.688, 0.750 56.750 C 0.603 25.813, 0.483 51.125, 0.483 113 M 127.061 29.028 C 106.144 31.927, 86.101 43.127, 73.058 59.204 C 70.248 62.667, 65.691 69.888, 62.931 75.250 L 57.912 85 53.706 85.012 C 44.875 85.037, 33.612 89.383, 24.500 96.283 C 10.733 106.708, 2.989 122.525, 3.012 140.176 C 3.018 145.304, 3.681 151.972, 4.485 154.992 C 8.457 169.917, 19.634 183.756, 33.051 190.361 C 46.354 196.910, 49.437 197.189, 103.500 196.752 C 148.848 196.385, 151.916 196.245, 159.021 194.228 C 175.867 189.445, 187.767 182.252, 199.652 169.667 C 216.282 152.059, 224.009 129.277, 221.820 104.310 C 220.844 93.181, 218.030 83.866, 212.259 72.661 C 204.514 57.626, 188.324 42.456, 172.604 35.504 C 159.644 29.772, 140.910 27.108, 127.061 29.028 M 125.585 62.119 C 113.396 64.978, 98.407 76.766, 92.767 87.929 L 90.033 93.339 96.200 98.919 C 103.622 105.636, 109.071 113.780, 112.182 122.810 C 115.374 132.073, 115.401 149.695, 112.235 158.250 L 110.108 164 126.304 163.983 C 136.494 163.972, 145.011 163.433, 149.270 162.531 C 172.260 157.659, 189.918 135.873, 189.985 112.299 C 190.049 89.695, 173.552 68.227, 151.632 62.390 C 145.896 60.863, 131.576 60.714, 125.585 62.119" stroke="none" fill="#fbfbfb" fill-rule="evenodd"/><path d="M 127.061 29.028 C 106.144 31.927, 86.101 43.127, 73.058 59.204 C 70.248 62.667, 65.691 69.888, 62.931 75.250 L 57.912 85 53.706 85.012 C 44.875 85.037, 33.612 89.383, 24.500 96.283 C 10.733 106.708, 2.989 122.525, 3.012 140.176 C 3.018 145.304, 3.681 151.972, 4.485 154.992 C 8.457 169.917, 19.634 183.756, 33.051 190.361 C 46.354 196.910, 49.437 197.189, 103.500 196.752 C 148.848 196.385, 151.916 196.245, 159.021 194.228 C 175.867 189.445, 187.767 182.252, 199.652 169.667 C 216.282 152.059, 224.009 129.277, 221.820 104.310 C 220.844 93.181, 218.030 83.866, 212.259 72.661 C 204.514 57.626, 188.324 42.456, 172.604 35.504 C 159.644 29.772, 140.910 27.108, 127.061 29.028 M 125.585 62.119 C 113.396 64.978, 98.407 76.766, 92.767 87.929 L 90.033 93.339 96.200 98.919 C 103.622 105.636, 109.071 113.780, 112.182 122.810 C 115.374 132.073, 115.401 149.695, 112.235 158.250 L 110.108 164 126.304 163.983 C 136.494 163.972, 145.011 163.433, 149.270 162.531 C 172.260 157.659, 189.918 135.873, 189.985 112.299 C 190.049 89.695, 173.552 68.227, 151.632 62.390 C 145.896 60.863, 131.576 60.714, 125.585 62.119" stroke="none" fill="#ec0474" fill-rule="evenodd"/></svg>